<svg xmlns="http://www.w3.org/2000/svg" xmlns:xlink="http://www.w3.org/1999/xlink" width="43" height="43" viewBox="0 0 43 43">
  <defs>
    <filter id="Ellipse_13" x="0" y="0" width="43" height="43" filterUnits="userSpaceOnUse">
      <feOffset input="SourceAlpha"/>
      <feGaussianBlur stdDeviation="1.5" result="blur"/>
      <feFlood flood-opacity="0.161"/>
      <feComposite operator="in" in2="blur"/>
      <feComposite in="SourceGraphic"/>
    </filter>
  </defs>
  <g id="Group_58" data-name="Group 58" transform="translate(-15.5 -263.5)">
    <g transform="matrix(1, 0, 0, 1, 15.5, 263.5)" filter="url(#Ellipse_13)">
      <circle id="Ellipse_13-2" data-name="Ellipse 13" cx="17" cy="17" r="17" transform="translate(4.5 4.5)" fill="#fff"/>
    </g>
    <g id="schedule_black_24dp" transform="translate(27 275)">
      <path id="Path_60" data-name="Path 60" d="M0,0H19.935V19.935H0Z" fill="none"/>
      <path id="Path_61" data-name="Path 61" d="M10.3,2a8.306,8.306,0,1,0,8.315,8.306A8.3,8.3,0,0,0,10.3,2Zm.008,14.951a6.645,6.645,0,1,1,6.645-6.645A6.643,6.643,0,0,1,10.306,16.951Zm.415-10.8H9.476v4.984l4.361,2.616.623-1.022-3.738-2.218Z" transform="translate(-0.339 -0.339)" fill="#17bba9"/>
    </g>
  </g>
</svg>
